<?xml version="1.0" standalone="no"?><svg xmlns="http://www.w3.org/2000/svg" viewBox="0 0 1440 320"><path fill="#2B2466" fill-opacity="1" d="M0,64L20,69.3C40,75,80,85,120,122.7C160,160,200,224,240,213.3C280,203,320,117,360,69.3C400,21,440,11,480,58.7C520,107,560,213,600,224C640,235,680,149,720,138.7C760,128,800,192,840,213.3C880,235,920,213,960,186.7C1000,160,1040,128,1080,106.7C1120,85,1160,75,1200,96C1240,117,1280,171,1320,197.3C1360,224,1400,224,1420,224L1440,224L1440,0L1420,0C1400,0,1360,0,1320,0C1280,0,1240,0,1200,0C1160,0,1120,0,1080,0C1040,0,1000,0,960,0C920,0,880,0,840,0C800,0,760,0,720,0C680,0,640,0,600,0C560,0,520,0,480,0C440,0,400,0,360,0C320,0,280,0,240,0C200,0,160,0,120,0C80,0,40,0,20,0L0,0Z"></path></svg>